<?xml version="1.0" encoding="iso-8859-1"?>
<!-- Generator: Adobe Illustrator 19.0.0, SVG Export Plug-In . SVG Version: 6.00 Build 0)  -->
<svg version="1.1" id="Layer_1" xmlns="http://www.w3.org/2000/svg" xmlns:xlink="http://www.w3.org/1999/xlink" x="0px" y="0px"
	 viewBox="0 0 512 512" style="enable-background:new 0 0 512 512;" xml:space="preserve">
<g>
	<g>
		<path d="M387.641,461.804h-7.978c-6.688-20.078-26.068-80.059-32.248-141.875c-7.456-74.579,4.799-147.319,4.922-148.044
			c0.505-2.922-0.309-5.669-2.216-7.934c-1.907-2.265-4.716-3.323-7.676-3.323H171.778c-2.941,0-5.735,0.968-7.642,3.204
			c-1.907,2.235-2.735,5.034-2.269,7.946c0.122,0.755,12.088,76.802,4.941,148.233c-5.929,59.289-25.598,121.716-32.31,141.794
			h-7.915c-13.829,0-26.19,10.603-26.19,24.446v15.059c0,5.549,5.607,10.691,11.151,10.691H402.68c5.544,0,8.928-5.142,8.928-10.691
			V486.25C411.608,472.407,401.469,461.804,387.641,461.804z M186.788,322.255c5.799-57.99-0.284-118.961-3.451-141.549h147.451
			c-3.265,22.588-9.363,81.422-3.353,141.549c5.858,58.608,22.701,114.451,31.01,139.549H155.67
			C163.979,436.706,181.131,378.804,186.788,322.255z M391.529,491.922H120.471v-5.672c0-2.765,3.357-4.368,6.112-4.368h15.078
			h230.902h15.078c2.804,0,3.888,1.554,3.888,4.368V491.922z"/>
	</g>
</g>
<g>
	<g>
		<path d="M402.68,0h-30.118c-5.544,0-11.151,3.838-11.151,9.387v40.809h-20.078V9.387c0-5.549-3.383-9.387-8.928-9.387H272.17
			c-5.544,0-11.151,3.838-11.151,9.387v40.809h-20.078V9.387c0-5.549-3.383-9.387-8.928-9.387h-50.196
			c-5.544,0-11.151,3.838-11.151,9.387v40.809h-20.078V9.387c0-5.549-3.383-9.387-8.928-9.387h-30.118
			c-5.544,0-11.151,3.838-11.151,9.387V99.74c0,5.549,5.607,10.691,11.151,10.691h18.967v19.426c0,5.549,5.607,10.691,11.151,10.691
			h230.902c5.544,0,8.928-5.142,8.928-10.691v-19.426h21.19c5.544,0,8.928-5.142,8.928-10.691V9.387
			C411.608,3.838,408.224,0,402.68,0z M361.412,120.471H150.588v-10.039h210.823V120.471z M391.529,90.353h-18.967H141.661h-21.19
			V20.078h10.039v39.505c0,5.549,5.607,10.691,11.151,10.691h40.157c5.544,0,8.928-5.142,8.928-10.691V20.078h30.118v39.505
			c0,5.549,5.607,10.691,11.151,10.691h40.157c5.544,0,8.928-5.142,8.928-10.691V20.078h40.157v39.505
			c0,5.549,5.607,10.691,11.151,10.691h40.157c5.544,0,8.928-5.142,8.928-10.691V20.078h10.039V90.353z"/>
	</g>
</g>
<g>
</g>
<g>
</g>
<g>
</g>
<g>
</g>
<g>
</g>
<g>
</g>
<g>
</g>
<g>
</g>
<g>
</g>
<g>
</g>
<g>
</g>
<g>
</g>
<g>
</g>
<g>
</g>
<g>
</g>
</svg>
